<svg width="734" height="640" viewBox="0 0 734 640" fill="none" xmlns="http://www.w3.org/2000/svg" xmlns:xlink="http://www.w3.org/1999/xlink">
<rect width="734" height="640" fill="url(#pattern0)"/>
<defs>
<pattern id="pattern0" patternContentUnits="objectBoundingBox" width="1" height="1">
<use xlink:href="#image0" transform="translate(-0.00408719) scale(0.0013624 0.0015625)"/>
</pattern>
<image id="image0" width="740" height="640" xlink:href="img/home.png"/>
</defs>
<path d="M222 536.783L443.561 544.899L513 531V553.014L444.264 573L222 561.841V536.783Z" fill="#3595F6" fill-opacity="0.75"/>
<path d="M223 535.758V510L444.06 513.4L514 510V530.606L444.461 544L223 535.758Z" fill="#3595F6" fill-opacity="0.75"/>
<path d="M223 508.833V483H444.762H514V506.767L445.766 514L223 508.833Z" fill="#3595F6" fill-opacity="0.75"/>
<path d="M223 484V458.739L445.066 455L513 461.77V484H444.765" fill="#3595F6" fill-opacity="0.75"/>
<path d="M223 457.935V431.372L445.264 428L514 439.238V461L444.762 454.155L223 457.935Z" fill="#3595F6" fill-opacity="0.75"/>
<path d="M222 430.569V406.494L443.757 394L515 417.363V439L443.757 426.506L222 430.569Z" fill="#3595F6" fill-opacity="0.75"/>
<path d="M222 407.886V382.531L444.961 366L515 395.006V416L444.459 393.992L222 407.886Z" fill="#3595F6" fill-opacity="0.75"/>
<path d="M222 382.644V356.902L445.262 336L515 373.686V395L442.753 365.448L222 382.644Z" fill="#3595F6" fill-opacity="0.75"/>
<path d="M222 355.664V331.189L445.764 306L515 350.871V373L445.463 334.248L222 355.664Z" fill="#3595F6" fill-opacity="0.75"/>
<path d="M222 330.656V306.22L445.262 277L515 328.925V350L444.459 306.933L222 330.656Z" fill="#3595F6" fill-opacity="0.75"/>
<path d="M221 305.722V281.418L444.059 248L515 308.051V328L444.761 276.658L221 305.722Z" fill="#3595F6" fill-opacity="0.75"/>
<path d="M222 280.388V255.824L443.96 220L514 285.506V307L445.064 247.328L222 280.388Z" fill="#3595F6" fill-opacity="0.75"/>
<path d="M222 255.385V229.835L445.064 191L514 262.845V284L444.763 218.593L222 255.385Z" fill="#3595F6" fill-opacity="0.75"/>
<path d="M222 229.254V203.688L443.559 159L514 239.787V263L444.763 188.042L222 229.254Z" fill="#3595F6" fill-opacity="0.75"/>
<path d="M223 205.028V179.333L443.759 130L514 217.361V241L443.056 159.497L223 205.028Z" fill="#3595F6" fill-opacity="0.75"/>
<path d="M222 179.339V153.904L442.555 101L514 194.905V218L444.06 130.199L222 179.339Z" fill="#3595F6" fill-opacity="0.75"/>
<path d="M222 153.924V127.225L444.763 69L514 173.435V195L444.462 100.834L222 153.924Z" fill="#3595F6" fill-opacity="0.75"/>

</svg>
